<?xml version="1.0" encoding="UTF-8"?>
<svg version="1.1" xmlns="http://www.w3.org/2000/svg" width="200" height="200">
<path d="M0 0 C66 0 132 0 200 0 C200 66 200 132 200 200 C134 200 68 200 0 200 C0 134 0 68 0 0 Z " fill="#FDD600" transform="translate(0,0)"/>
<path d="M0 0 C2.87906296 -0.21728777 5.74167252 -0.3748323 8.625 -0.5 C9.83736328 -0.60054687 9.83736328 -0.60054687 11.07421875 -0.703125 C14.4976204 -0.81445513 16.97336387 -0.84816831 19.68530273 1.39233398 C21.3405949 3.50796233 22.67112295 5.66471402 24 8 C24.53657227 8.91088379 25.07314453 9.82176758 25.62597656 10.76025391 C27.39872514 13.83846387 29.11133193 16.9442026 30.8125 20.0625 C35.70135793 29.01350642 35.70135793 29.01350642 40.9453125 37.7578125 C41.37223389 38.43577881 41.79915527 39.11374512 42.23901367 39.81225586 C43.35243352 41.55439842 44.485965 43.2836426 45.62109375 45.01171875 C47.32545067 48.70529678 46.98072496 50.09282262 46 54 C44.45288086 57.12109375 44.45288086 57.12109375 42.46484375 60.4375 C42.10789932 61.03949219 41.7509549 61.64148438 41.38319397 62.26171875 C40.24340497 64.1798772 39.09097586 66.09004732 37.9375 68 C36.81676617 69.87493836 35.69872211 71.75146081 34.58096313 73.62817383 C33.83742177 74.8751553 33.09212253 76.1210903 32.34506226 77.3659668 C30.44402384 80.54018819 28.57642425 83.7283805 26.76220703 86.953125 C26.40324844 87.59056641 26.04428986 88.22800781 25.67445374 88.88476562 C24.68799511 90.64458673 23.70816345 92.40811783 22.72875977 94.171875 C20.11383906 98.44969473 20.11383906 98.44969473 18 100 C16.00708008 100.34057617 16.00708008 100.34057617 13.76953125 100.29296875 C12.96708984 100.28330078 12.16464844 100.27363281 11.33789062 100.26367188 C10.50451172 100.23853516 9.67113281 100.21339844 8.8125 100.1875 C7.5450293 100.16719727 7.5450293 100.16719727 6.25195312 100.14648438 C4.16769616 100.11115799 2.08376723 100.05735139 0 100 C0.49264499 94.99209215 1.4929979 91.50841854 4.0625 87.19140625 C4.69099854 86.12180664 5.31949707 85.05220703 5.96704102 83.95019531 C6.63791748 82.83225586 7.30879395 81.71431641 8 80.5625 C8.68370615 79.39898969 9.36590916 78.23459484 10.04663086 77.06933594 C13.01100713 72.00357426 16.01730204 66.96442328 19.06640625 61.94921875 C19.49630859 61.22597412 19.92621094 60.50272949 20.36914062 59.75756836 C21.14049555 58.45993097 21.92857679 57.17202809 22.73632812 55.89672852 C24.47301123 52.95295066 25.13606313 51.53432023 24.27758789 48.16308594 C22.99814972 44.99541903 21.52975662 42.16592692 19.8046875 39.21875 C18.85928101 37.593927 18.85928101 37.593927 17.89477539 35.9362793 C16.89498657 34.23532104 16.89498657 34.23532104 15.875 32.5 C15.19256739 31.3269919 14.51084742 30.15356892 13.82983398 28.97973633 C10.98970028 24.08925305 8.13202275 19.20980063 5.23046875 14.35546875 C4.8535791 13.71738281 4.47668945 13.07929687 4.08837891 12.421875 C3.14184419 10.82164116 2.1828089 9.228819 1.22265625 7.63671875 C-0.07648701 4.83505198 -0.2720568 3.04814661 0 0 Z " fill="#071F4A" transform="translate(63,50)"/>
<path d="M0 0 C0.66 0 1.32 0 2 0 C3.55716207 2.36676227 4.97998452 4.72622024 6.375 7.1875 C6.80474121 7.93547852 7.23448242 8.68345703 7.67724609 9.45410156 C8.61496556 11.08750525 9.54989022 12.7225157 10.48242188 14.35888672 C12.07452683 17.12970258 13.69851395 19.87999978 15.328125 22.62890625 C16.42749816 24.5023608 17.52646341 26.37605478 18.625 28.25 C19.15786621 29.14227295 19.69073242 30.0345459 20.23974609 30.95385742 C20.97572021 32.22193237 20.97572021 32.22193237 21.7265625 33.515625 C22.38519287 34.63372559 22.38519287 34.63372559 23.05712891 35.77441406 C24.14205599 38.33531392 24.17628748 40.24603814 24 43 C11.08148556 45.02929436 11.08148556 45.02929436 5 43 C0.50011879 39.1471052 -1.78299284 33.5151478 -4.03466797 28.15185547 C-4.97812914 26.04875311 -6.08231333 24.19695738 -7.31640625 22.25390625 C-9 19 -9 19 -9.00390625 16.51953125 C-7.6194683 13.04496908 -5.85057492 9.89578281 -3.9375 6.6875 C-3.56044922 6.04232422 -3.18339844 5.39714844 -2.79492188 4.73242188 C-1.86962507 3.15121848 -0.93567319 1.5750854 0 0 Z " fill="#071F49" transform="translate(113,107)"/>
<path d="M0 0 C3.86074104 0.23844689 7.50303438 0.74358632 11.29248047 1.53588867 C10.7995893 6.6341445 9.7272219 10.15543817 7.12451172 14.55541992 C6.47804687 15.66079102 5.83158203 16.76616211 5.16552734 17.9050293 C4.47892149 19.0529612 3.79207141 20.20074705 3.10498047 21.34838867 C2.44433594 22.4730957 1.78369141 23.59780273 1.10302734 24.7565918 C-0.20034884 26.970916 -1.51121442 29.18085148 -2.83007812 31.38598633 C-4.05684338 33.44420809 -5.26881949 35.51133656 -6.46386719 37.58813477 C-6.99415527 38.50288574 -7.52444336 39.41763672 -8.07080078 40.36010742 C-8.53397705 41.16923584 -8.99715332 41.97836426 -9.47436523 42.81201172 C-9.88130615 43.38089111 -10.28824707 43.94977051 -10.70751953 44.53588867 C-11.36751953 44.53588867 -12.02751953 44.53588867 -12.70751953 44.53588867 C-14.24654193 41.98285152 -15.76347146 39.42048932 -17.27001953 36.84838867 C-17.70765625 36.1271582 -18.14529297 35.40592773 -18.59619141 34.6628418 C-19.00546875 33.95708008 -19.41474609 33.25131836 -19.83642578 32.52416992 C-20.21871338 31.8800415 -20.60100098 31.23591309 -20.99487305 30.57226562 C-22.51690189 26.22309036 -20.28421614 22.19433742 -18.43408203 18.23510742 C-9.53877242 0.34429257 -9.53877242 0.34429257 0 0 Z " fill="#071F4B" transform="translate(125.70751953125,48.464111328125)"/>
<path d="M0 0 C3.35752663 1.11917554 4.07817291 1.9531871 6.1875 4.6875 C6.71730469 5.35136719 7.24710938 6.01523438 7.79296875 6.69921875 C9 9 9 9 9 15 C4.38 15 -0.24 15 -5 15 C-5 8 -5 8 -3 6 C-2.835 5.154375 -2.67 4.30875 -2.5 3.4375 C-2.335 2.633125 -2.17 1.82875 -2 1 C-1.34 0.67 -0.68 0.34 0 0 Z " fill="#051D4F" transform="translate(127,134)"/>
<path d="M0 0 C0.99 0.33 1.98 0.66 3 1 C3.09152344 1.69738281 3.18304688 2.39476563 3.27734375 3.11328125 C4.15075291 6.60219678 5.68123728 9.12807275 7.5625 12.1875 C11 17.79678068 11 17.79678068 11 20 C12.32 19.01 13.64 18.02 15 17 C15 18.32 15 19.64 15 21 C13.02 21.33 11.04 21.66 9 22 C9 24.64 9 27.28 9 30 C8.34 30.33 7.68 30.66 7 31 C7.05414063 30.11683105 7.10828125 29.23366211 7.1640625 28.32373047 C6.9834769 24.66525968 6.22445017 22.94125966 4.375 19.8203125 C3.56289062 18.428125 3.56289062 18.428125 2.734375 17.0078125 C2.16203125 16.05648437 1.5896875 15.10515625 1 14.125 C0.42765625 13.15046875 -0.1446875 12.1759375 -0.734375 11.171875 C-2.14480014 8.77415226 -3.56682849 6.38417229 -5 4 C-4.01 4 -3.02 4 -2 4 C-1.34 4.66 -0.68 5.32 0 6 C0 5.34 0 4.68 0 4 C0 2.68 0 1.36 0 0 Z " fill="#E6CB20" transform="translate(102,73)"/>
<path d="M0 0 C2.93804996 -0.08086376 5.87388075 -0.1404283 8.8125 -0.1875 C9.64587891 -0.21263672 10.47925781 -0.23777344 11.33789062 -0.26367188 C12.54155273 -0.27817383 12.54155273 -0.27817383 13.76953125 -0.29296875 C14.87711792 -0.31653442 14.87711792 -0.31653442 16.00708008 -0.34057617 C18.52230522 0.08925833 19.39441516 1.07463062 21 3 C20.67 3.66 20.34 4.32 20 5 C19.34 4.34 18.68 3.68 18 3 C14.55497967 2.55064952 12.65254224 2.62221239 9.625 4.375 C7.13036958 8.4047876 7.68264112 12.38066514 8 17 C5.57294972 14.76512086 3.94073833 12.4903083 2.3125 9.625 C1.87550781 8.87476563 1.43851562 8.12453125 0.98828125 7.3515625 C-0.11599474 4.72399671 -0.18446068 2.82174985 0 0 Z " fill="#1A2933" transform="translate(63,50)"/>
<path d="M0 0 C0.45375 0.639375 0.9075 1.27875 1.375 1.9375 C2.83921726 4.09702406 2.83921726 4.09702406 5 5 C3.70966095 7.27159689 2.41778598 9.54229625 1.125 11.8125 C0.76019531 12.45509766 0.39539063 13.09769531 0.01953125 13.75976562 C-1.58083901 16.56768798 -3.20642866 19.30964298 -5 22 C-4.67 19.69 -4.34 17.38 -4 15 C-4.99 15 -5.98 15 -7 15 C-7 15.66 -7 16.32 -7 17 C-7.66 17 -8.32 17 -9 17 C-7.51481201 12.95698825 -5.57122002 9.38853744 -3.375 5.6875 C-2.74335937 4.61886719 -2.11171875 3.55023438 -1.4609375 2.44921875 C-0.97882813 1.64097656 -0.49671875 0.83273438 0 0 Z " fill="#ECCE1A" transform="translate(108,104)"/>
<path d="M0 0 C0.33 0 0.66 0 1 0 C1 1.65 1 3.3 1 5 C0.34 5 -0.32 5 -1 5 C-1 5.66 -1 6.32 -1 7 C-1.66 7 -2.32 7 -3 7 C-3 8.32 -3 9.64 -3 11 C-3.66 11 -4.32 11 -5 11 C-5.66 14.96 -6.32 18.92 -7 23 C-6.34 23 -5.68 23 -5 23 C-5.33 24.32 -5.66 25.64 -6 27 C-10.0332791 20.76675048 -10.0332791 20.76675048 -9.90234375 17.75 C-8.63399977 13.88457072 -6.631769 10.63594985 -4.5 7.1875 C-4.08363281 6.49462891 -3.66726562 5.80175781 -3.23828125 5.08789062 C-2.19279796 3.37079428 -1.10044076 1.68240462 0 0 Z " fill="#1B2928" transform="translate(114,57)"/>
<path d="M0 0 C6.27 0 12.54 0 19 0 C18.67 2.31 18.34 4.62 18 7 C17.67 7 17.34 7 17 7 C17 5.35 17 3.7 17 2 C14.37251369 2.05985162 11.75083005 2.14676224 9.125 2.25 C8.37863281 2.26417969 7.63226563 2.27835938 6.86328125 2.29296875 C4.42861619 2.35986341 4.42861619 2.35986341 1 3 C-0.60337399 4.90628782 -0.60337399 4.90628782 -1 7 C-1.66 7 -2.32 7 -3 7 C-1.125 2.25 -1.125 2.25 0 0 Z " fill="#293225" transform="translate(118,50)"/>
<path d="M0 0 C0.66 0.33 1.32 0.66 2 1 C1.01 3.97 0.02 6.94 -1 10 C1.89887118 9.96688725 4.79016622 9.89962106 7.6875 9.8125 C8.50412109 9.80669922 9.32074219 9.80089844 10.16210938 9.79492188 C14.32869145 9.64310309 17.04712261 9.48412739 20.08203125 6.44921875 C20.71496094 5.64097656 21.34789063 4.83273438 22 4 C21.67 6.31 21.34 8.62 21 11 C17.18751574 11.02887236 13.3750593 11.04675492 9.5625 11.0625 C8.47388672 11.07087891 7.38527344 11.07925781 6.26367188 11.08789062 C5.22919922 11.09111328 4.19472656 11.09433594 3.12890625 11.09765625 C1.69140015 11.10551147 1.69140015 11.10551147 0.22485352 11.11352539 C-2 11 -2 11 -3 10 C-3.04080783 8.00041636 -3.04254356 5.99954746 -3 4 C-2.34 4 -1.68 4 -1 4 C-0.67 2.68 -0.34 1.36 0 0 Z " fill="#DFC831" transform="translate(64,140)"/>
<path d="M0 0 C1.65 0.33 3.3 0.66 5 1 C3.5143761 5.00375642 1.63136615 8.61421847 -0.5 12.3125 C-1.1084375 13.38113281 -1.716875 14.44976562 -2.34375 15.55078125 C-3.16359375 16.76314453 -3.16359375 16.76314453 -4 18 C-4.66 18 -5.32 18 -6 18 C-6.33 17.01 -6.66 16.02 -7 15 C-6.34 15 -5.68 15 -5 15 C-4.67 14.01 -4.34 13.02 -4 12 C-3.34 12 -2.68 12 -2 12 C-2 10.68 -2 9.36 -2 8 C-0.5 6.25 -0.5 6.25 1 5 C0.34 5 -0.32 5 -1 5 C-0.67 3.35 -0.34 1.7 0 0 Z " fill="#0F2439" transform="translate(119,75)"/>
<path d="M0 0 C0.66 0 1.32 0 2 0 C2.33 1.32 2.66 2.64 3 4 C4.65 4 6.3 4 8 4 C8 4.66 8 5.32 8 6 C7.34 6 6.68 6 6 6 C6.33 6.66 6.66 7.32 7 8 C10.46712111 9.15570704 13.5414956 9.32835293 17.1875 9.5625 C19.09595703 9.68818359 19.09595703 9.68818359 21.04296875 9.81640625 C22.01878906 9.87699219 22.99460938 9.93757812 24 10 C24.33 8.68 24.66 7.36 25 6 C25 7.65 25 9.3 25 11 C11.50648277 12.20239262 11.50648277 12.20239262 6 11 C2.61824051 8.14711718 1.19148288 5.22434839 0 1 C0 0.67 0 0.34 0 0 Z " fill="#2B3320" transform="translate(112,139)"/>
<path d="M0 0 C0.66 0.33 1.32 0.66 2 1 C-1.63 7.27 -5.26 13.54 -9 20 C-9.33 18.68 -9.66 17.36 -10 16 C-9.34 16 -8.68 16 -8 16 C-7.91363281 15.40832031 -7.82726562 14.81664062 -7.73828125 14.20703125 C-6.74154618 8.60153953 -5.48247747 5.79286555 -1 2 C-0.67 1.34 -0.34 0.68 0 0 Z " fill="#E1C82B" transform="translate(79,114)"/>
<path d="M0 0 C0.99 0.33 1.98 0.66 3 1 C3.33 2.65 3.66 4.3 4 6 C4.66 6 5.32 6 6 6 C5.74438677 8.3431213 5.40729228 10.67843403 5 13 C4.01 13.495 4.01 13.495 3 14 C2.690625 14.825 2.38125 15.65 2.0625 16.5 C1.711875 17.325 1.36125 18.15 1 19 C0.01 19.33 -0.98 19.66 -2 20 C-0.91998622 17.17534858 0.19657924 14.6700277 1.75 12.0625 C3.33250884 9.03135302 3.33250884 9.03135302 2.25 5.8125 C1.8375 4.884375 1.425 3.95625 1 3 C0.67 2.01 0.34 1.02 0 0 Z " fill="#212B2A" transform="translate(85,92)"/>
<path d="M0 0 C2.70272533 2.87164566 3.94791837 4.30991841 4.25 8.3125 C4.1675 9.199375 4.085 10.08625 4 11 C0.7 11 -2.6 11 -6 11 C-4.68 10.34 -3.36 9.68 -2 9 C0.41121859 7.04366025 0.41121859 7.04366025 0.125 3.375 C0.08375 2.26125 0.0425 1.1475 0 0 Z " fill="#102536" transform="translate(132,138)"/>
<path d="M0 0 C0.99 0.33 1.98 0.66 3 1 C0.69 5.29 -1.62 9.58 -4 14 C-4.33 14 -4.66 14 -5 14 C-5 12.35 -5 10.7 -5 9 C-4.34 9 -3.68 9 -3 9 C-3 8.34 -3 7.68 -3 7 C-3.99 7.33 -4.98 7.66 -6 8 C-5.67 6.35 -5.34 4.7 -5 3 C-3.35 3.33 -1.7 3.66 0 4 C0 2.68 0 1.36 0 0 Z " fill="#17292F" transform="translate(90,130)"/>
<path d="M0 0 C2.9552728 2.61778794 4.75832727 5.67583335 6.75 9.0625 C7.38421875 10.12597656 8.0184375 11.18945312 8.671875 12.28515625 C9.11015625 13.18105469 9.5484375 14.07695313 10 15 C9.67 15.66 9.34 16.32 9 17 C8.34 16.67 7.68 16.34 7 16 C7 15.01 7 14.02 7 13 C6.34 13 5.68 13 5 13 C5 11.68 5 10.36 5 9 C4.360625 8.814375 3.72125 8.62875 3.0625 8.4375 C1 7 1 7 0.25 3.375 C0.1675 2.26125 0.085 1.1475 0 0 Z " fill="#2E3722" transform="translate(84,55)"/>
<path d="M0 0 C7.26 0 14.52 0 22 0 C22 0.33 22 0.66 22 1 C15.73 1 9.46 1 3 1 C2.34 2.65 1.68 4.3 1 6 C0.34 6.66 -0.32 7.32 -1 8 C-0.67 5.36 -0.34 2.72 0 0 Z " fill="#E3CB2F" transform="translate(115,49)"/>
<path d="M0 0 C0.33 1.32 0.66 2.64 1 4 C0.34 4 -0.32 4 -1 4 C-1.144375 4.78375 -1.28875 5.5675 -1.4375 6.375 C-2 9 -2 9 -3 11 C-3.66 11 -4.32 11 -5 11 C-5 11.99 -5 12.98 -5 14 C-5.66 14 -6.32 14 -7 14 C-7 14.99 -7 15.98 -7 17 C-7.66 17 -8.32 17 -9 17 C-7.51481201 12.95698825 -5.57122002 9.38853744 -3.375 5.6875 C-2.74335937 4.61886719 -2.11171875 3.55023438 -1.4609375 2.44921875 C-0.97882813 1.64097656 -0.49671875 0.83273438 0 0 Z " fill="#DDC52C" transform="translate(108,104)"/>
<path d="M0 0 C0.66 0.66 1.32 1.32 2 2 C2.66 1.67 3.32 1.34 4 1 C4.66 4.3 5.32 7.6 6 11 C1.125 8.25 1.125 8.25 0 6 C-0.039992 4.00039988 -0.04346799 1.99952758 0 0 Z " fill="#0F243B" transform="translate(109,80)"/>
<path d="M0 0 C2.9552728 2.61778794 4.75832727 5.67583335 6.75 9.0625 C7.38421875 10.12597656 8.0184375 11.18945312 8.671875 12.28515625 C9.11015625 13.18105469 9.5484375 14.07695312 10 15 C9.67 15.66 9.34 16.32 9 17 C8.67 16.01 8.34 15.02 8 14 C7.01 13.67 6.02 13.34 5 13 C4.33333333 11 3.66666667 9 3 7 C2.01 6.67 1.02 6.34 0 6 C0 4.02 0 2.04 0 0 Z " fill="#283221" transform="translate(122,121)"/>
<path d="M0 0 C3.22269618 3.79817765 5.74520378 7.57391854 8 12 C7.67 12.66 7.34 13.32 7 14 C6.01 13.67 5.02 13.34 4 13 C3.67 10.69 3.34 8.38 3 6 C2.34 6 1.68 6 1 6 C0.67 4.02 0.34 2.04 0 0 Z " fill="#DCC829" transform="translate(72,71)"/>
<path d="M0 0 C0.66 0 1.32 0 2 0 C2 0.66 2 1.32 2 2 C2.66 2 3.32 2 4 2 C4.69965443 3.26418246 5.38434763 4.53665402 6.0625 5.8125 C6.63677734 6.87404297 6.63677734 6.87404297 7.22265625 7.95703125 C8 10 8 10 7 13 C5.83072457 11.02237345 4.66464427 9.04285742 3.5 7.0625 C2.8503125 5.96035156 2.200625 4.85820313 1.53125 3.72265625 C0 1 0 1 0 0 Z M5 0 C5 3 5 3 5 3 Z " fill="#E5C827" transform="translate(119,114)"/>
<path d="M0 0 C0.83583327 2.37607949 1.1842383 3.54449627 0.22265625 5.921875 C-0.8515625 7.61458333 -1.92578125 9.30729167 -3 11 C-3.66 11 -4.32 11 -5 11 C-5 11.99 -5 12.98 -5 14 C-5.66 14 -6.32 14 -7 14 C-5.23570801 9.02790438 -2.6060834 4.56561939 0 0 Z " fill="#292E21" transform="translate(82,112)"/>
<path d="M0 0 C0.99 0 1.98 0 3 0 C3 1.32 3 2.64 3 4 C3.66 4.33 4.32 4.66 5 5 C4.34 5 3.68 5 3 5 C3 7.64 3 10.28 3 13 C2.01 13.495 2.01 13.495 1 14 C0.67 9.38 0.34 4.76 0 0 Z " fill="#EBCF15" transform="translate(108,90)"/>
<path d="M0 0 C0.33 0 0.66 0 1 0 C1 1.65 1 3.3 1 5 C0.34 5 -0.32 5 -1 5 C-1 5.66 -1 6.32 -1 7 C-1.66 7 -2.32 7 -3 7 C-3 8.32 -3 9.64 -3 11 C-4.98 11.99 -4.98 11.99 -7 13 C-5.37621488 8.27626146 -2.89006982 4.05818166 0 0 Z " fill="#252E26" transform="translate(114,57)"/>
<path d="M0 0 C0.66 0.33 1.32 0.66 2 1 C1.05065487 2.67180274 0.09026687 4.33733936 -0.875 6 C-1.40867187 6.928125 -1.94234375 7.85625 -2.4921875 8.8125 C-2.98976563 9.534375 -3.48734375 10.25625 -4 11 C-4.66 11 -5.32 11 -6 11 C-6.33 10.01 -6.66 9.02 -7 8 C-6.34 8 -5.68 8 -5 8 C-4.67 7.01 -4.34 6.02 -4 5 C-3.34 5 -2.68 5 -2 5 C-2 3.68 -2 2.36 -2 1 C-1.34 0.67 -0.68 0.34 0 0 Z " fill="#2B331F" transform="translate(119,82)"/>
<path d="M0 0 C0.66 0 1.32 0 2 0 C2.66 1.65 3.32 3.3 4 5 C2.68 4.67 1.36 4.34 0 4 C0 4.99 0 5.98 0 7 C-1.98 7.99 -1.98 7.99 -4 9 C-2.80100302 5.9168649 -1.52299523 2.93720508 0 0 Z " fill="#2C321D" transform="translate(113,107)"/>
<path d="M0 0 C0.99 0.99 1.98 1.98 3 3 C2.89390495 7.88037243 1.23714234 10.44958582 -2 14 C-2 12.68 -2 11.36 -2 10 C-1.34 10 -0.68 10 0 10 C0 6.7 0 3.4 0 0 Z " fill="#2A3221" transform="translate(107,95)"/>
<path d="M0 0 C0.33 1.32 0.66 2.64 1 4 C0.01 5.485 0.01 5.485 -1 7 C-1.66 7 -2.32 7 -3 7 C-3 8.65 -3 10.3 -3 12 C-3.99 11.34 -4.98 10.68 -6 10 C-4.02 6.7 -2.04 3.4 0 0 Z " fill="#DDC629" transform="translate(126,73)"/>
<path d="M0 0 C0.66 0 1.32 0 2 0 C2 0.66 2 1.32 2 2 C2.66 2 3.32 2 4 2 C4 2.99 4 3.98 4 5 C5.65 5.33 7.3 5.66 9 6 C8.01 6.495 8.01 6.495 7 7 C6.67 7.99 6.34 8.98 6 10 C3.47650757 6.87567603 1.72743854 3.61939504 0 0 Z " fill="#E6C822" transform="translate(83,52)"/>
<path d="M0 0 C1 2 1 2 0.0625 5.125 C-0.288125 6.07375 -0.63875 7.0225 -1 8 C-1.66 8 -2.32 8 -3 8 C-3 8.99 -3 9.98 -3 11 C-3.99 11.33 -4.98 11.66 -6 12 C-4.68139111 7.38486888 -2.78644563 3.90102388 0 0 Z " fill="#2B331F" transform="translate(70,133)"/>
<path d="M0 0 C1.65 0 3.3 0 5 0 C2.525 4.455 2.525 4.455 0 9 C-1.53445094 5.93109813 -0.54984289 3.29905734 0 0 Z " fill="#E2C927" transform="translate(82,104)"/>
<path d="M0 0 C4.42857143 5.14285714 4.42857143 5.14285714 5 9 C3.68 9 2.36 9 1 9 C0.67 6.03 0.34 3.06 0 0 Z " fill="#DCC527" transform="translate(104,126)"/>
<path d="M0 0 C0.66 0 1.32 0 2 0 C2 0.66 2 1.32 2 2 C2.66 2 3.32 2 4 2 C5.625 4 5.625 4 7 6 C6.34 7.32 5.68 8.64 5 10 C3.35 6.7 1.7 3.4 0 0 Z " fill="#222F26" transform="translate(71,68)"/>
<path d="M0 0 C0.33 0 0.66 0 1 0 C0.67 2.97 0.34 5.94 0 9 C-0.99 9.33 -1.98 9.66 -3 10 C-3 10.66 -3 11.32 -3 12 C-3.66 11.67 -4.32 11.34 -5 11 C-4.360625 9.9275 -3.72125 8.855 -3.0625 7.75 C-1.59398727 5.19177818 -0.47145458 2.94659114 0 0 Z " fill="#D1BA2D" transform="translate(137,51)"/>
<path d="M0 0 C3.0916909 2.52956528 3.90931332 5.22454612 5 9 C4.01 9 3.02 9 2 9 C2 7.35 2 5.7 2 4 C1.34 4 0.68 4 0 4 C0 2.68 0 1.36 0 0 Z " fill="#283321" transform="translate(117,112)"/>
<path d="M0 0 C1 3 1 3 0.25 5.625 C-1 8 -1 8 -4 9 C-2.80100302 5.9168649 -1.52299523 2.93720508 0 0 Z " fill="#273024" transform="translate(87,103)"/>
<path d="M0 0 C0.66 1.32 1.32 2.64 2 4 C1.01 4.33 0.02 4.66 -1 5 C-1 5.66 -1 6.32 -1 7 C-1.66 7 -2.32 7 -3 7 C-1.125 1.125 -1.125 1.125 0 0 Z " fill="#DAC127" transform="translate(94,128)"/>
<path d="M0 0 C2.52259061 1.97420135 2.9929808 2.96745642 3.6875 6.1875 C3.790625 7.115625 3.89375 8.04375 4 9 C3.01 8.34 2.02 7.68 1 7 C0.3125 3.375 0.3125 3.375 0 0 Z " fill="#212E2B" transform="translate(84,55)"/>
</svg>
